<?xml version="1.0" encoding="UTF-8"?>
<svg enable-background="new 0 0 38.1 38.1" version="1.1" viewBox="0 0 38.1 38.1" xmlns="http://www.w3.org/2000/svg" xmlns:xlink="http://www.w3.org/1999/xlink">
 <style type="text/css">.st0{fill:#00A5CB;} .st1{fill:#0190B0;} .st2{clip-path:url(#c);} .st3{fill:#DCDBDB;} .st4{fill:#FFFFFF;} .st5{fill:#F2F2F2;} .st6{clip-path:url(#SVGID_4_);} .st7{fill:none;} .st8{fill:none;stroke:#FFFFFF;stroke-miterlimit:10;} .st9{clip-path:url(#SVGID_6_);}</style>
 <path class="st0" d="M19,38C8.6,38,0.2,29.5,0.2,19.1S8.6,0.3,19,0.3"/>
 <path class="st1" d="M19,0.3c10.4,0,18.8,8.4,18.8,18.8S29.4,38,19,38"/>
 <defs>
  <circle id="d" cx="19" cy="19.1" r="18.6"/>
 </defs>
 <clipPath id="c">
  <use xlink:href="#d"/>
 </clipPath>
 <g class="st2">
  <path class="st3" d="m27.1 8.7c-1.6 1.2 0.5 10.9-1.3 12.2l1.9-1.3c1.7-1.2-0.3-11.1 1.4-12.2 0-0.1-2 1.3-2 1.3z"/>
  <path class="st3" d="m30.6 6.3c-1.6 1.1 0.4 10.9-1.3 12.1l1.9-1.3c1.7-1.2-0.3-11.1 1.4-12.2-0.1 0-2 1.4-2 1.4z"/>
  <path class="st3" d="m14.3 17.9c-1.6 1.2 0.5 10.9-1.3 12.2l1.9-1.3c1.7-1.2-0.3-11.1 1.4-12.2 0-0.1-2 1.3-2 1.3z"/>
  <path class="st3" d="m17.8 15.4c-1.6 1.2 0.5 10.9-1.3 12.2l1.9-1.3c1.7-1.2-0.3-11.1 1.4-12.2-0.1-0.1-2 1.3-2 1.3z"/>
  <path class="st3" d="m1.5 27.1c-1.7 1.1 0.4 10.9-1.3 12.2l1.8-1.4c1.7-1.2-0.3-11.1 1.4-12.2l-1.9 1.4z"/>
  <path class="st3" d="m4.9 24.6c-1.6 1.2 0.5 10.9-1.3 12.2l1.9-1.3c1.7-1.2-0.3-11.1 1.4-12.2 0-0.1-2 1.3-2 1.3z"/>
  <path class="st4" d="m16 16.7c1.6-1.2 10.2 4 11.9 2.7l-1.9 1.4c-1.7 1.2-10.4-3.8-12-2.7l2-1.4z"/>
  <path class="st4" d="m19.4 14.2c1.6-1.2 10.2 4 11.9 2.7l-1.9 1.3c-1.7 1.2-10.4-3.8-12-2.7 0.1 0.1 2-1.3 2-1.3z"/>
  <path class="st4" d="m28.8 7.5c1.6-1.2 10.2 4 11.9 2.7l-1.9 1.3c-1.7 1.2-10.4-3.8-12-2.7 0.1 0.1 2-1.3 2-1.3z"/>
  <path class="st4" d="m32.3 5c1.6-1.2 10.2 4 11.9 2.7l-1.9 1.3c-1.7 1.2-10.4-3.8-12-2.7 0 0.1 2-1.3 2-1.3z"/>
  <path class="st4" d="m6.6 23.4c1.6-1.2 10.2 4 11.9 2.7l-1.9 1.3c-1.7 1.2-10.4-3.8-12-2.7 0.1 0.1 2-1.3 2-1.3z"/>
  <path class="st4" d="m3.2 25.9c1.6-1.2 10.2 4 11.9 2.7l-1.9 1.3c-1.7 1.2-10.4-3.8-12-2.7 0 0.1 2-1.3 2-1.3z"/>
 </g>
</svg>
