<?xml version="1.0" encoding="UTF-8" standalone="no"?>
<!DOCTYPE svg PUBLIC "-//W3C//DTD SVG 1.1//EN" "http://www.w3.org/Graphics/SVG/1.1/DTD/svg11.dtd">
<svg width="100%" height="100%" viewBox="0 0 7800 1440" version="1.1" xmlns="http://www.w3.org/2000/svg" xmlns:xlink="http://www.w3.org/1999/xlink" xml:space="preserve" style="fill-rule:evenodd;clip-rule:evenodd;stroke-linejoin:round;stroke-miterlimit:1.41421;">
    <g>
        <g transform="matrix(1,0,0,1,3040,720)">
            <g transform="matrix(1,0,0,1,-3040,-720)">
                <g transform="matrix(1,0,0,1,4.54747e-13,0.33359)">
                    <g transform="matrix(6.14174,0,0,6.14174,-1562.77,-311.818)">
                        <g transform="matrix(0.307765,0,0,0.325641,-132.292,7.70615)">
                            <path d="M2265.03,793.531C2313.47,793.531 2347.68,767.376 2355.57,723.887L2334.37,723.887C2327.71,754.84 2300.78,773.876 2265.19,773.876C2217.68,773.876 2187.19,736.578 2187.19,677.768C2187.19,619.732 2217.68,582.744 2265.03,582.744C2299.7,582.744 2328.18,605.339 2334.37,637.53L2355.57,637.53C2349.53,593.887 2312.24,563.089 2265.03,563.089C2204.37,563.089 2165.52,607.815 2165.52,677.768C2165.52,748.495 2204.21,793.531 2265.03,793.531Z" style="fill:rgb(3,41,76);fill-rule:nonzero;"/>
                            <path d="M2437.44,773.876C2414.22,773.876 2398.44,761.649 2398.44,743.697C2398.44,724.971 2413.3,714.137 2441.31,712.28L2490.06,708.875L2490.06,727.292C2490.06,753.602 2467.31,773.876 2437.44,773.876ZM2433.41,791.828C2458.95,791.828 2481.55,778.364 2490.52,758.09L2490.99,758.09L2490.99,789.971L2510.49,789.971L2510.49,676.375C2510.49,642.792 2486.19,621.435 2447.96,621.435C2412.99,621.435 2386.68,642.173 2384.97,671.423L2404.63,671.423C2408.34,651.613 2424.59,639.696 2447.81,639.696C2474.74,639.696 2490.06,653.78 2490.06,678.078L2490.06,692.316L2438.83,695.721C2398.9,698.506 2377.55,715.066 2377.55,743.542C2377.55,772.328 2400.14,791.828 2433.41,791.828Z" style="fill:rgb(3,41,76);fill-rule:nonzero;"/>
                            <path d="M2546.39,789.971L2566.82,789.971L2566.82,692.006C2566.82,660.899 2585.7,639.696 2615.42,639.696C2643.74,639.696 2659.83,656.566 2659.83,685.971L2659.83,789.971L2680.26,789.971L2680.26,682.721C2680.26,644.958 2657.82,621.435 2621.14,621.435C2594.21,621.435 2575.49,633.661 2566.2,654.399L2565.58,654.399L2565.58,623.292L2546.39,623.292L2546.39,789.971Z" style="fill:rgb(3,41,76);fill-rule:nonzero;"/>
                            <path d="M2851.27,675.756C2847.25,646.351 2821.72,621.435 2782.71,621.435C2737.52,621.435 2707.81,655.018 2707.81,706.554C2707.81,759.173 2737.68,791.828 2783.02,791.828C2819.86,791.828 2846.63,770.007 2851.43,738.59L2831.16,738.59C2826.36,760.411 2808.56,773.411 2783.02,773.411C2750.37,773.411 2728.7,747.876 2728.7,706.554C2728.7,666.006 2750.21,639.696 2782.87,639.696C2809.49,639.696 2826.98,655.328 2831,675.756L2851.27,675.756Z" style="fill:rgb(3,41,76);fill-rule:nonzero;"/>
                            <path d="M2943.67,639.542C2973.85,639.542 2994.28,661.828 2994.59,694.947L2890.89,694.947C2892.75,661.828 2913.8,639.542 2943.67,639.542ZM2993.5,742.768C2988.55,761.03 2970.75,773.721 2945.68,773.721C2912.56,773.721 2890.89,750.507 2890.89,712.744L2890.89,711.661L3015.94,711.661L3015.94,702.685C3015.94,653.161 2987.78,621.435 2943.98,621.435C2899.1,621.435 2869.69,655.328 2869.69,707.018C2869.69,759.483 2899.1,791.828 2945.22,791.828C2981.43,791.828 3008.82,771.245 3013.78,742.768L2993.5,742.768Z" style="fill:rgb(3,41,76);fill-rule:nonzero;"/>
                            <path d="M3044.42,789.971L3064.85,789.971L3064.85,686.59C3064.85,659.661 3080.01,641.089 3103.69,641.089C3110.81,641.089 3116.69,642.173 3119.48,643.411L3119.48,623.137C3116.85,622.363 3111.89,621.435 3106.48,621.435C3085.74,621.435 3069.95,633.042 3064.23,652.851L3063.61,652.851L3063.61,623.292L3044.42,623.292L3044.42,789.971Z" style="fill:rgb(3,41,76);fill-rule:nonzero;"/>
                            <path d="M3236.17,789.971L3236.17,603.327L3237.25,603.327L3368.65,789.971L3389.08,789.971L3389.08,566.649L3368.18,566.649L3368.18,753.138L3367.1,753.138L3236.17,566.649L3215.28,566.649L3215.28,789.971L3236.17,789.971Z" style="fill:rgb(3,41,76);fill-rule:nonzero;"/>
                            <path d="M3481.62,773.876C3458.41,773.876 3442.62,761.649 3442.62,743.697C3442.62,724.971 3457.48,714.137 3485.49,712.28L3534.24,708.875L3534.24,727.292C3534.24,753.602 3511.49,773.876 3481.62,773.876ZM3477.6,791.828C3503.14,791.828 3525.73,778.364 3534.71,758.09L3535.17,758.09L3535.17,789.971L3554.67,789.971L3554.67,676.375C3554.67,642.792 3530.37,621.435 3492.15,621.435C3457.17,621.435 3430.86,642.173 3429.16,671.423L3448.81,671.423C3452.53,651.613 3468.78,639.696 3491.99,639.696C3518.92,639.696 3534.24,653.78 3534.24,678.078L3534.24,692.316L3483.01,695.721C3443.09,698.506 3421.73,715.066 3421.73,743.542C3421.73,772.328 3444.33,791.828 3477.6,791.828Z" style="fill:rgb(3,41,76);fill-rule:nonzero;"/>
                            <path d="M3720.73,623.292L3699.37,623.292L3647.99,768.149L3647.53,768.149L3596.3,623.292L3574.79,623.292L3637,789.971L3658.67,789.971L3720.73,623.292Z" style="fill:rgb(3,41,76);fill-rule:nonzero;"/>
                            <path d="M3743.33,789.971L3763.76,789.971L3763.76,623.292L3743.33,623.292L3743.33,789.971ZM3753.54,590.327C3761.12,590.327 3767.31,583.982 3767.31,576.553C3767.31,568.815 3761.12,562.625 3753.54,562.625C3745.96,562.625 3739.61,568.815 3739.61,576.553C3739.61,583.982 3745.96,590.327 3753.54,590.327Z" style="fill:rgb(3,41,76);fill-rule:nonzero;"/>
                            <path d="M3867.76,772.328C3835.87,772.328 3814.67,746.018 3814.67,706.244C3814.67,666.316 3835.87,639.696 3867.76,639.696C3899.95,639.696 3921.92,666.78 3921.92,706.244C3921.92,745.399 3899.95,772.328 3867.76,772.328ZM3869.77,851.721C3914.18,851.721 3942.35,825.876 3942.35,787.185L3942.35,623.292L3922.85,623.292L3922.85,657.804L3922.54,657.804C3912.79,635.982 3891.28,621.435 3864.66,621.435C3822.26,621.435 3793.78,655.328 3793.78,706.244C3793.78,756.697 3822.26,790.745 3864.2,790.745C3890.82,790.745 3912.17,776.042 3921.46,754.53L3921.92,754.53L3921.92,787.959C3921.92,815.507 3902.27,833.769 3870.7,833.769C3846.4,833.769 3828.45,822.007 3822.87,805.447L3801.67,805.447C3806.32,831.757 3833.71,851.721 3869.77,851.721Z" style="fill:rgb(3,41,76);fill-rule:nonzero;"/>
                            <path d="M4030.57,773.876C4007.35,773.876 3991.57,761.649 3991.57,743.697C3991.57,724.971 4006.42,714.137 4034.43,712.28L4083.18,708.875L4083.18,727.292C4083.18,753.602 4060.43,773.876 4030.57,773.876ZM4026.54,791.828C4052.08,791.828 4074.67,778.364 4083.65,758.09L4084.11,758.09L4084.11,789.971L4103.61,789.971L4103.61,676.375C4103.61,642.792 4079.32,621.435 4041.09,621.435C4006.11,621.435 3979.8,642.173 3978.1,671.423L3997.76,671.423C4001.47,651.613 4017.72,639.696 4040.93,639.696C4067.86,639.696 4083.18,653.78 4083.18,678.078L4083.18,692.316L4031.96,695.721C3992.03,698.506 3970.67,715.066 3970.67,743.542C3970.67,772.328 3993.27,791.828 4026.54,791.828Z" style="fill:rgb(3,41,76);fill-rule:nonzero;"/>
                            <path d="M4148.49,583.363L4148.49,623.292L4124.66,623.292L4124.66,640.47L4148.49,640.47L4148.49,748.959C4148.49,778.983 4159.64,790.9 4187.19,790.9C4191.52,790.9 4200.49,790.435 4202.66,789.816L4202.66,772.328C4201.42,772.483 4193.38,772.947 4191.21,772.947C4175.73,772.947 4168.92,765.519 4168.92,748.185L4168.92,640.47L4201.89,640.47L4201.89,623.292L4168.92,623.292L4168.92,583.363L4148.49,583.363Z" style="fill:rgb(3,41,76);fill-rule:nonzero;"/>
                            <path d="M4293.82,791.828C4339.63,791.828 4369.65,758.554 4369.65,706.554C4369.65,654.554 4339.63,621.435 4293.82,621.435C4248.01,621.435 4218.14,654.554 4218.14,706.554C4218.14,758.554 4248.01,791.828 4293.82,791.828ZM4293.82,773.411C4260.08,773.411 4239.03,748.185 4239.03,706.554C4239.03,665.078 4260.08,639.696 4293.82,639.696C4327.71,639.696 4348.76,664.923 4348.76,706.554C4348.76,748.185 4327.71,773.411 4293.82,773.411Z" style="fill:rgb(3,41,76);fill-rule:nonzero;"/>
                            <path d="M4398.13,789.971L4418.56,789.971L4418.56,686.59C4418.56,659.661 4433.72,641.089 4457.4,641.089C4464.52,641.089 4470.4,642.173 4473.19,643.411L4473.19,623.137C4470.56,622.363 4465.6,621.435 4460.19,621.435C4439.45,621.435 4423.66,633.042 4417.94,652.851L4417.32,652.851L4417.32,623.292L4398.13,623.292L4398.13,789.971Z" style="fill:rgb(3,41,76);fill-rule:nonzero;"/>
                        </g>
                        <g transform="matrix(0.32549,0,0,0.32549,111.621,-520.561)">
                            <g transform="matrix(1,0,0,1,0,3.38625)">
                                <path d="M2213.84,2141.31L2312.55,2141.31L2438.01,1929.82L2560.81,2141.33L2662.33,2141.33L2438.12,1752.1L2213.84,2141.31Z" style="fill:rgb(110,189,223);"/>
                            </g>
                            <g transform="matrix(1.39831,0,0,1.39831,-816.238,-852.812)">
                                <path d="M1703.78,1956.14L1552.45,1956.14L1552.45,2015.82L1687.19,2015.82C1706.2,2015.82 1719.22,2019.33 1726.23,2026.34C1733.25,2033.35 1736.75,2046.64 1736.75,2066.2L1736.75,2090.27C1736.75,2109.96 1733.31,2123.31 1726.43,2130.33C1719.56,2137.34 1706.47,2140.85 1687.19,2140.85L1562.36,2140.85C1542.94,2140.85 1529.72,2137.31 1522.71,2130.23C1515.69,2123.15 1512.19,2109.83 1512.19,2090.27L1512.19,2076.76L1545.37,2076.72L1545.37,2111.11L1704.59,2111.11L1704.59,2046.77L1570.25,2046.77C1550.83,2046.77 1537.68,2043.23 1530.8,2036.15C1523.92,2029.07 1520.48,2015.75 1520.48,1996.19L1520.48,1977.58C1520.48,1958.03 1523.92,1944.71 1530.8,1937.62C1537.68,1930.54 1550.83,1927 1570.25,1927L1684.15,1927C1703.17,1927 1716.29,1930.48 1723.5,1937.42C1730.72,1944.37 1734.33,1956.54 1734.33,1973.94L1734.33,1987.01L1703.78,1987.09L1703.78,1956.14Z" style="fill:rgb(101,98,99);fill-rule:nonzero;"/>
                                <g transform="matrix(0.71515,0,0,0.71515,583.733,609.889)">
                                    <path d="M1936.21,2093.79L1924.89,2093.79C1924.89,2093.79 1793.17,1913.54 1792.95,1913.08C1793.13,1918.36 1795.05,2140.75 1795.05,2140.75L1746.26,2140.75L1746.09,1841.73L1795.05,1841.73L1930.55,2036.36L1930.55,2036.41L1930.55,2036.36L2066.06,1841.73L2115.01,1841.73L2114.84,2140.75L2066.06,2140.75C2066.06,2140.75 2067.97,1918.36 2068.16,1913.08C2067.93,1913.54 1936.37,2093.58 1936.21,2093.79Z" style="fill:rgb(101,98,99);"/>
                                </g>
                                <g transform="matrix(1,0,0,1,190.108,2.2003)">
                                    <path d="M2532.24,1954.72L2409.64,1954.72L2409.64,2029.78L2532.24,2029.78C2541.15,2029.78 2547.22,2028.16 2550.45,2024.92C2553.69,2021.69 2555.31,2016.02 2555.31,2007.93L2555.31,1976.77C2555.31,1968.68 2553.66,1962.98 2550.35,1959.68C2547.05,1956.37 2541.01,1954.72 2532.24,1954.72ZM2373.83,2140.85L2373.83,1927L2546.2,1927C2562.25,1927 2573.82,1930.28 2580.9,1936.82C2587.98,1943.36 2591.52,1953.91 2591.52,1968.48L2591.52,2016.22C2591.52,2030.65 2587.98,2041.14 2580.9,2047.68C2573.82,2054.22 2562.25,2057.49 2546.2,2057.49L2514.85,2057.49L2612.56,2140.85L2559.56,2140.85L2472.56,2057.49L2409.64,2057.49L2409.64,2140.85L2373.83,2140.85Z" style="fill:rgb(101,98,99);fill-rule:nonzero;"/>
                                </g>
                                <g transform="matrix(1,0,0,1,46.9035,2.83549)">
                                    <path d="M2927.56,1956.14L2927.56,2140.85L2891.96,2140.85L2891.96,1956.14L2794.24,1956.14L2794.24,1927L3025.68,1927L3025.68,1956.14L2927.56,1956.14Z" style="fill:rgb(101,98,99);fill-rule:nonzero;"/>
                                </g>
                            </g>
                        </g>
                    </g>
                    <g transform="matrix(7.61359,0,0,7.61359,-847.938,-3162.57)">
                        <g id="layer3" transform="matrix(0.0147277,0,0,0.0147277,96.6306,428.748)">
                            <path d="M1072,5662C1032,5660 1007,5654 1004,5646C1001,5639 1025,5593 1058,5544C1090,5495 1174,5363 1245,5250C1562,4746 1732,4480 1741,4474C1747,4471 2525,4468 3471,4469C4416,4470 5190,4469 5190,4466C5190,4458 5074,4258 4845,3875C4730,3683 4588,3444 4530,3345C4471,3246 4217,2819 3965,2395C3713,1971 3502,1613 3497,1599C3488,1576 3503,1549 3636,1332C3718,1199 3858,970 3947,823C4232,352 4210,385 4230,406C4240,417 4350,594 4475,800C4789,1316 5069,1776 5382,2290C6970,4899 7421,5644 7416,5657C7411,5670 7026,5671 4272,5668C2547,5667 1107,5664 1072,5662Z" style="fill:rgb(239,52,39);fill-rule:nonzero;"/>
                        </g>
                        <g id="layer4" transform="matrix(0.0147277,0,0,0.0147277,96.6306,428.748)">
                            <path d="M11438,11369C11415,11339 11182,10955 10650,10075C10564,9932 10273,9453 10005,9010C9736,8567 9453,8099 9375,7970C9141,7581 8436,6419 8393,6350C8309,6215 8269,6138 8274,6124C8279,6112 8705,6110 11477,6112C14551,6115 14675,6116 14678,6133C14680,6143 14657,6188 14627,6233C14577,6309 14316,6722 14056,7138L13948,7310L12607,7310C11869,7310 11093,7313 10883,7317L10500,7323L10526,7369C10686,7646 11819,9571 12056,9969C12130,10092 12190,10202 12190,10214C12190,10236 12176,10260 11944,10640C11861,10775 11733,10985 11659,11108C11585,11231 11511,11348 11494,11367L11464,11403L11438,11369Z" style="fill:rgb(119,192,50);fill-rule:nonzero;"/>
                        </g>
                        <g id="layer5" transform="matrix(0.0147277,0,0,0.0147277,96.6306,428.748)">
                            <path d="M8275,5649C8271,5644 8315,5562 8372,5467C8430,5372 8543,5185 8624,5050C8705,4915 8775,4798 8780,4790C8920,4564 9459,3677 9501,3603C9514,3581 9604,3432 9701,3273C9798,3115 9955,2857 10050,2700C10208,2439 10639,1726 10660,1690C10665,1682 10754,1536 10858,1365C10963,1195 11127,925 11223,765C11320,606 11413,455 11430,431L11462,388L11486,411C11499,423 11510,438 11510,443C11510,449 11521,468 11535,486C11549,504 11560,522 11560,526C11560,530 11571,548 11585,566C11599,584 11610,601 11610,604C11610,611 11858,1021 11919,1115C11975,1201 11987,1221 11997,1240C12001,1248 12049,1329 12103,1420C12158,1511 12202,1593 12202,1604C12201,1614 12195,1630 12187,1639C12171,1656 12032,1885 12021,1910C12018,1918 11994,1957 11969,1995C11912,2083 11570,2649 11570,2656C11570,2659 11559,2676 11546,2693C11518,2732 11170,3308 11170,3317C11170,3321 11164,3331 11156,3339C11142,3354 10831,3869 10817,3900C10813,3908 10802,3927 10792,3941C10764,3984 10547,4339 10507,4407L10471,4470L12211,4472L13950,4475L13975,4505C13988,4522 14034,4594 14076,4665C14119,4737 14189,4851 14232,4920C14275,4989 14316,5054 14323,5065C14329,5076 14351,5109 14370,5140C14389,5170 14413,5211 14423,5230C14434,5249 14452,5279 14464,5295C14476,5312 14489,5332 14492,5340C14496,5348 14539,5420 14588,5500C14638,5580 14676,5648 14673,5653C14666,5665 8282,5662 8275,5649Z" style="fill:rgb(245,117,0);fill-rule:nonzero;"/>
                        </g>
                        <g id="layer6" transform="matrix(0.0147277,0,0,0.0147277,96.6306,428.748)">
                            <path d="M4172,11348C4156,11324 4108,11247 4066,11176C3969,11014 3583,10381 3518,10278C3492,10235 3470,10195 3470,10188C3470,10170 3487,10141 4333,8742C4775,8012 5148,7394 5163,7369L5189,7323L5032,7317C4946,7313 4169,7310 3306,7310L1736,7310L1713,7288C1700,7276 1580,7088 1448,6870C1315,6653 1158,6399 1099,6305C1021,6181 995,6132 1002,6123C1018,6104 7393,6104 7408,6123C7420,6137 7415,6147 7225,6460C7082,6696 6700,7326 6100,8315C5840,8744 5584,9167 5530,9255C5360,9534 4904,10286 4575,10830C4401,11119 4251,11363 4242,11373C4219,11399 4204,11394 4172,11348Z" style="fill:rgb(248,173,0);fill-rule:nonzero;"/>
                            <path d="M8270,5656C8257,5639 8259,5635 8595,5082C8707,4897 8776,4792 8782,4798C8791,4807 8746,4884 8399,5455C8343,5548 8296,5633 8295,5642C8293,5668 8284,5672 8270,5656Z" style="fill:rgb(248,173,0);fill-rule:nonzero;"/>
                            <path d="M14648,5627C14558,5491 14470,5336 14478,5328C14483,5323 14524,5381 14580,5472C14692,5655 14682,5637 14671,5644C14666,5647 14656,5640 14648,5627Z" style="fill:rgb(248,173,0);fill-rule:nonzero;"/>
                            <path d="M14426,5268C14408,5239 14394,5212 14397,5207C14404,5195 14417,5207 14449,5260C14490,5327 14469,5335 14426,5268Z" style="fill:rgb(248,173,0);fill-rule:nonzero;"/>
                            <path d="M14346,5138C14328,5109 14314,5082 14317,5077C14324,5065 14337,5077 14369,5130C14410,5197 14389,5205 14346,5138Z" style="fill:rgb(248,173,0);fill-rule:nonzero;"/>
                            <path d="M14272,5018C14256,4994 14188,4883 14120,4770C13977,4531 13955,4500 13930,4500C13907,4500 13894,4482 13907,4469C13928,4448 13967,4480 14017,4557C14134,4737 14318,5050 14310,5055C14305,5058 14288,5041 14272,5018Z" style="fill:rgb(248,173,0);fill-rule:nonzero;"/>
                            <path d="M8787,4783C8778,4769 9511,3567 9522,3578C9529,3585 9491,3655 9418,3777C9355,3880 9194,4145 9061,4365C8928,4585 8813,4771 8805,4778C8798,4786 8790,4788 8787,4783Z" style="fill:rgb(248,173,0);fill-rule:nonzero;"/>
                            <path d="M10462,4477C10455,4468 10491,4399 10597,4225C10744,3981 10764,3951 10773,3967C10775,3971 10711,4085 10630,4220C10548,4355 10484,4468 10486,4472C10494,4485 10472,4490 10462,4477Z" style="fill:rgb(248,173,0);fill-rule:nonzero;"/>
                            <path d="M10775,3951C10771,3943 10774,3932 10783,3923C10802,3903 10813,3922 10796,3945C10786,3959 10781,3960 10775,3951Z" style="fill:rgb(248,173,0);fill-rule:nonzero;"/>
                            <path d="M10806,3901C10800,3892 11106,3371 11135,3342C11142,3334 11150,3332 11153,3337C11157,3344 10837,3887 10817,3907C10814,3909 10809,3907 10806,3901Z" style="fill:rgb(248,173,0);fill-rule:nonzero;"/>
                            <path d="M9527,3563C9524,3558 9645,3352 9794,3105C9944,2857 10199,2438 10360,2172C10552,1854 10656,1692 10663,1699C10669,1705 10599,1829 10458,2062C10340,2256 10165,2543 10070,2700C9684,3338 9548,3560 9540,3565C9535,3568 9529,3567 9527,3563Z" style="fill:rgb(248,173,0);fill-rule:nonzero;"/>
                            <path d="M11156,3321C11152,3316 11229,3179 11326,3018C11527,2685 11538,2668 11550,2675C11558,2680 11198,3293 11170,3323C11166,3328 11159,3327 11156,3321Z" style="fill:rgb(248,173,0);fill-rule:nonzero;"/>
                            <path d="M11557,2654C11554,2651 11631,2517 11727,2357C11952,1984 11988,1928 12000,1935C12005,1938 11959,2022 11898,2123C11557,2687 11570,2667 11557,2654Z" style="fill:rgb(248,173,0);fill-rule:nonzero;"/>
                            <path d="M12007,1913C12002,1905 12139,1668 12165,1642C12172,1634 12180,1632 12183,1637C12188,1645 12046,1888 12022,1912C12017,1917 12010,1918 12007,1913Z" style="fill:rgb(248,173,0);fill-rule:nonzero;"/>
                            <path d="M10666,1682C10664,1678 10701,1609 10749,1530C10798,1450 10952,1196 11092,965C11386,480 11415,433 11443,403C11462,382 11465,381 11481,396C11502,415 11496,437 11475,420C11458,406 11514,317 10763,1557C10689,1680 10676,1697 10666,1682Z" style="fill:rgb(248,173,0);fill-rule:nonzero;"/>
                            <path d="M12186,1622C12182,1615 12181,1607 12183,1603C12186,1598 12142,1519 12085,1425C11994,1273 11972,1228 12000,1245C12005,1248 12049,1317 12098,1398C12147,1479 12194,1557 12203,1571C12217,1592 12218,1599 12206,1615C12197,1627 12191,1629 12186,1622Z" style="fill:rgb(248,173,0);fill-rule:nonzero;"/>
                            <path d="M11961,1216C11954,1208 11953,1199 11958,1196C11964,1193 11973,1197 11979,1204C11986,1212 11987,1221 11982,1224C11976,1227 11967,1223 11961,1216Z" style="fill:rgb(248,173,0);fill-rule:nonzero;"/>
                            <path d="M11897,1113C11773,919 11592,610 11599,605C11610,599 11618,609 11670,695C11910,1087 11958,1170 11950,1175C11945,1178 11921,1150 11897,1113Z" style="fill:rgb(248,173,0);fill-rule:nonzero;"/>
                            <path d="M11561,561C11549,545 11544,529 11549,526C11554,522 11568,533 11579,549C11591,565 11596,581 11591,584C11586,588 11572,577 11561,561Z" style="fill:rgb(248,173,0);fill-rule:nonzero;"/>
                            <path d="M11510,479C11495,459 11491,445 11497,439C11504,432 11514,441 11528,464C11554,509 11539,521 11510,479Z" style="fill:rgb(248,173,0);fill-rule:nonzero;"/>
                        </g>
                        <g id="layer7" transform="matrix(0.0147277,0,0,0.0147277,96.6306,428.748)">
                            <path d="M7807,5368C7791,5344 7741,5262 7350,4620C7214,4397 6926,3925 6710,3570C4779,402 4609,120 4615,109C4619,104 4914,100 5360,100L6099,100L6123,132C6136,150 6234,309 6340,485C6446,661 6715,1107 6938,1475C7161,1844 7449,2321 7578,2535C7707,2750 7816,2929 7820,2933C7827,2941 8127,2467 8765,1435C9120,861 9551,172 9582,127L9601,100L10320,100C10821,100 11041,103 11045,111C11049,117 11010,190 10959,273C10870,420 10701,696 10270,1405C10156,1592 9974,1891 9865,2070C9756,2249 9579,2539 9472,2715C9365,2891 9183,3189 9069,3378C8954,3566 8843,3748 8821,3783C8800,3817 8611,4126 8402,4470C7863,5357 7846,5383 7833,5387C7827,5390 7815,5381 7807,5368Z" style="fill:rgb(122,30,117);fill-rule:nonzero;"/>
                        </g>
                    </g>
                </g>
            </g>
        </g>
        <g transform="matrix(1,0,0,1,-464,18.5)">
            <g transform="matrix(0.53727,0,0,0.513889,3284.58,350)">
                <path d="M9268,214.354C9268,96.049 9176.13,0 9062.97,0L6696.03,0C6582.87,0 6491,96.049 6491,214.354L6491,1225.65C6491,1343.95 6582.87,1440 6696.03,1440L9062.97,1440C9176.13,1440 9268,1343.95 9268,1225.65L9268,214.354Z" style="fill:rgb(221,68,68);"/>
            </g>
            <g transform="matrix(1.31827,0,0,1.31827,-470.99,353.007)">
                <path d="M5779.29,392C5827.94,392 5858.81,366.333 5858.81,326.495C5858.81,296.262 5834.4,273.429 5803.69,272.012L5803.69,270.753C5828.89,267.288 5848.26,246.975 5848.26,221.466C5848.26,186.352 5821.17,164.779 5776.45,164.779L5670.16,164.779L5670.16,392L5779.29,392ZM5727.95,205.72L5761.18,205.72C5780.55,205.72 5791.88,215.168 5791.88,231.072C5791.88,247.448 5779.44,257.368 5758.34,257.368L5727.95,257.368L5727.95,205.72ZM5727.95,351.059L5727.95,292.483L5762.6,292.483C5786.53,292.483 5800.07,302.875 5800.07,321.456C5800.07,340.667 5786.69,351.059 5762.91,351.059L5727.95,351.059Z" style="fill:white;fill-rule:nonzero;"/>
                <path d="M6038.79,345.391L5940.85,345.391L5940.85,299.096L6032.96,299.096L6032.96,256.581L5940.85,256.581L5940.85,211.389L6038.79,211.389L6038.79,164.779L5883.06,164.779L5883.06,392L6038.79,392L6038.79,345.391Z" style="fill:white;fill-rule:nonzero;"/>
                <path d="M6182.24,392L6182.24,211.389L6245.22,211.389L6245.22,164.779L6061.46,164.779L6061.46,211.389L6124.45,211.389L6124.45,392L6182.24,392Z" style="fill:white;fill-rule:nonzero;"/>
                <path d="M6388.83,392L6450.24,392L6373.87,164.779L6303.17,164.779L6226.8,392L6285.69,392L6300.18,342.084L6374.5,342.084L6388.83,392ZM6336.71,212.963L6337.97,212.963L6363.16,300.513L6311.36,300.513L6336.71,212.963Z" style="fill:white;fill-rule:nonzero;"/>
            </g>
        </g>
    </g>
</svg>
